HIERARCHY
ROOT Hips
{
	OFFSET -0.001795 -0.223333 0.028219
	CHANNELS 6 Xposition Yposition Zposition Zrotation Yrotation Xrotation 
	JOINT LeftUpLeg
	{
		OFFSET 0.069520 -0.091406 -0.006815
		CHANNELS 3 Zrotation Yrotation Xrotation
		JOINT LeftLeg
		{
			OFFSET 0.034277 -0.375199 -0.004496
			CHANNELS 3 Zrotation Yrotation Xrotation
			JOINT LeftFoot
			{
				OFFSET -0.013596 -0.397961 -0.043693
				CHANNELS 3 Zrotation Yrotation Xrotation
				JOINT LeftToe
				{
					OFFSET 0.026358 -0.055791 0.119288
					CHANNELS 3 Zrotation Yrotation Xrotation
					End Site
					{
						OFFSET 0.000000 0.000000 0.000000
					}
				}
			}
		}
	}
	JOINT RightUpLeg
	{
		OFFSET -0.067670 -0.090522 -0.004320
		CHANNELS 3 Zrotation Yrotation Xrotation
		JOINT RightLeg
		{
			OFFSET -0.038290 -0.382569 -0.008850
			CHANNELS 3 Zrotation Yrotation Xrotation
			JOINT RightFoot
			{
				OFFSET 0.015774 -0.398415 -0.042312
				CHANNELS 3 Zrotation Yrotation Xrotation
				JOINT RightToe
				{
					OFFSET -0.025372 -0.048144 0.123348
					CHANNELS 3 Zrotation Yrotation Xrotation
					End Site
					{
						OFFSET 0.000000 0.000000 0.000000
					}
				}
			}
		}
	}
	JOINT Spine
	{
		OFFSET -0.002533 0.108963 -0.026696
		CHANNELS 3 Zrotation Yrotation Xrotation
		JOINT Spine1
		{
			OFFSET 0.005487 0.135180 0.001092
			CHANNELS 3 Zrotation Yrotation Xrotation
			JOINT Spine2
			{
				OFFSET 0.001457 0.052922 0.025425
				CHANNELS 3 Zrotation Yrotation Xrotation
				JOINT Neck
				{
					OFFSET -0.002778 0.213870 -0.042857
					CHANNELS 3 Zrotation Yrotation Xrotation
					JOINT Head
					{
						OFFSET 0.005152 0.064970 0.051349
						CHANNELS 3 Zrotation Yrotation Xrotation
						End Site
						{
							OFFSET 0.000000 0.000000 0.000000
						}
					}
				}
				JOINT LeftShoulder
				{
					OFFSET 0.078845 0.121749 -0.034090
					CHANNELS 3 Zrotation Yrotation Xrotation
					JOINT LeftArm
					{
						OFFSET 0.090977 0.030469 -0.008868
						CHANNELS 3 Zrotation Yrotation Xrotation
						JOINT LeftForeArm
						{
							OFFSET 0.259612 -0.012772 -0.027456
							CHANNELS 3 Zrotation Yrotation Xrotation
							JOINT LeftHand
							{
								OFFSET 0.249234 0.008986 -0.001171
								CHANNELS 3 Zrotation Yrotation Xrotation
								End Site
								{
									OFFSET 0.000000 0.000000 0.000000
								}
							}
						}
					}
				}
				JOINT RightShoulder
				{
					OFFSET -0.081759 0.118833 -0.038615
					CHANNELS 3 Zrotation Yrotation Xrotation
					JOINT RightArm
					{
						OFFSET -0.096012 0.032551 -0.009143
						CHANNELS 3 Zrotation Yrotation Xrotation
						JOINT RightForeArm
						{
							OFFSET -0.253742 -0.013329 -0.021401
							CHANNELS 3 Zrotation Yrotation Xrotation
							JOINT RightHand
							{
								OFFSET -0.255298 0.007772 -0.005559
								CHANNELS 3 Zrotation Yrotation Xrotation
								End Site
								{
									OFFSET 0.000000 0.000000 0.000000
								}
							}
						}
					}
				}
			}
		}
	}
}
MOTION
Frames: 18
Frame Time: 0.050000
0.000000 0.946015 0.000000 -0.274744 -4.515299 7.538151 5.297933 -0.310292 -4.356045 -0.762315 0.258567 -6.008923 0.806173 5.037899 10.776263 0.000000 0.000000 0.000000 -3.392099 0.545353 -5.373084 -2.100838 -0.186660 -6.901169 0.959887 -4.803215 14.666950 0.000000 0.000000 0.000000 5.650627 0.230297 -4.380604 -2.915107 1.300059 -4.505084 -3.238811 5.386752 3.969548 7.007264 -3.447376 -11.661712 0.000000 0.000000 0.000000 -18.906143 0.155217 -2.783832 -54.019697 -6.345440 -3.364596 -7.652268 -12.812663 1.248546 0.000000 0.000000 0.000000 17.296902 -6.814507 -4.468213 61.913514 4.641475 -3.384502 6.683618 16.010211 1.419410 0.000000 0.000000 0.000000 
0.000585 0.945128 0.000350 -0.417910 -5.017604 8.300065 5.500867 -0.309963 -4.337292 -0.977242 0.312763 -7.291144 1.032581 5.419396 11.012561 0.000000 0.000000 0.000000 -3.397170 0.628921 -6.400267 -1.979543 -0.179505 -6.657678 1.115301 -4.529513 14.469790 0.000000 0.000000 0.000000 6.532928 0.307849 -5.158824 -3.403104 1.499884 -4.446407 -3.864963 5.962122 3.210503 7.602660 -3.707860 -12.095790 0.000000 0.000000 0.000000 -19.771202 0.618828 -3.296374 -52.823303 -6.260053 -3.206692 -8.281037 -12.125405 1.233763 0.000000 0.000000 0.000000 17.171581 -8.115044 -5.076647 62.529265 3.805963 -3.729897 7.378954 16.024668 1.512755 0.000000 0.000000 0.000000 
0.000949 0.945095 0.000494 -0.159894 -4.873925 8.010498 4.950125 -0.325680 -4.494992 -0.530670 0.262548 -6.533556 1.004115 5.321687 10.740715 0.000000 0.000000 0.000000 -3.398163 0.618683 -6.308697 -2.509864 -0.135210 -6.223923 0.986301 -4.648254 14.209534 0.000000 0.000000 0.000000 6.304396 0.287738 -4.947527 -3.375314 1.476522 -5.099804 -4.020297 5.790609 3.277428 7.200222 -3.810389 -10.098190 0.000000 0.000000 0.000000 -19.125080 0.272247 -2.981554 -52.929539 -5.608030 -3.533912 -8.145124 -11.549017 1.163537 0.000000 0.000000 0.000000 17.799837 -6.947244 -4.549749 61.365294 3.248605 -4.022519 7.619704 16.148335 1.552117 0.000000 0.000000 0.000000 
0.001198 0.944940 0.000687 -0.119733 -4.852845 8.520988 5.274503 -0.337450 -4.762110 -1.196288 0.316565 -7.049542 0.960837 5.302707 10.957434 0.000000 0.000000 0.000000 -3.529833 0.672127 -6.986640 -2.411711 -0.126650 -5.987136 0.922285 -4.740019 14.162917 0.000000 0.000000 0.000000 6.328808 0.307371 -5.241299 -3.500268 1.537985 -4.627998 -3.789894 5.453194 1.824819 7.344032 -4.032204 -9.302063 0.000000 0.000000 0.000000 -19.188757 1.071720 -3.381115 -53.404608 -5.771339 -3.361781 -7.955898 -10.730202 1.060712 0.000000 0.000000 0.000000 16.439303 -7.445928 -4.727540 61.901895 2.727196 -4.121376 8.892849 16.386960 1.721175 0.000000 0.000000 0.000000 
0.001346 0.945339 0.000810 0.058092 -4.516644 8.429928 4.746671 -0.356806 -4.871671 -0.578784 0.273576 -6.806814 0.793647 5.064197 10.973568 0.000000 0.000000 0.000000 -3.564301 0.666203 -6.946318 -2.678305 -0.102217 -5.777700 0.751562 -5.000474 14.171873 0.000000 0.000000 0.000000 5.995905 0.303154 -5.258686 -3.174624 1.406618 -4.502159 -3.892845 5.120951 1.604262 6.871235 -3.710526 -9.297502 0.000000 0.000000 0.000000 -18.789457 0.940568 -3.228078 -53.665366 -6.021046 -3.262092 -8.477928 -10.322673 1.065193 0.000000 0.000000 0.000000 16.099785 -7.343409 -4.650476 61.706631 2.596687 -4.151737 9.038473 16.246021 1.717272 0.000000 0.000000 0.000000 
0.001410 0.945593 0.000981 0.129665 -4.451027 8.533117 4.777160 -0.355043 -4.805196 -0.771323 0.294984 -7.142146 0.711509 4.989485 11.187163 0.000000 0.000000 0.000000 -3.678856 0.661980 -6.887401 -2.617403 -0.121118 -6.055281 0.748024 -5.054729 14.340797 0.000000 0.000000 0.000000 5.804548 0.309243 -5.376041 -3.072289 1.361278 -4.644371 -3.806194 5.134846 1.495793 6.936431 -3.787110 -9.087238 0.000000 0.000000 0.000000 -18.812124 1.089729 -3.320990 -53.650756 -6.017232 -3.249400 -8.308712 -10.270321 1.044212 0.000000 0.000000 0.000000 15.782664 -7.160563 -4.509833 61.892251 2.518785 -4.181042 9.007189 16.390231 1.730577 0.000000 0.000000 0.000000 
0.001408 0.945718 0.001089 0.133446 -4.358514 8.463338 4.549594 -0.361362 -4.834694 -0.365129 0.267211 -6.970635 0.682173 4.937618 11.135016 0.000000 0.000000 0.000000 -3.582739 0.646486 -6.680935 -2.780149 -0.125244 -6.245210 0.732071 -5.100890 14.427008 0.000000 0.000000 0.000000 5.737244 0.308493 -5.372471 -3.072783 1.362421 -4.667285 -3.743068 4.888581 1.584641 6.879474 -3.692808 -9.486748 0.000000 0.000000 0.000000 -18.563356 0.913828 -3.135896 -53.947689 -6.078664 -3.263964 -8.817199 -10.769160 1.144906 0.000000 0.000000 0.000000 15.675214 -6.873918 -4.384675 62.077255 2.631069 -4.150852 8.845190 16.790836 1.753528 0.000000 0.000000 0.000000 
0.001464 0.945749 0.001133 0.142991 -3.944483 8.611521 4.372783 -0.389838 -5.224342 -0.006964 0.236595 -6.693696 0.519637 4.685078 11.041502 0.000000 0.000000 0.000000 -3.617195 0.642683 -6.645419 -2.700853 -0.140617 -6.458531 0.549941 -5.405430 14.555006 0.000000 0.000000 0.000000 5.619351 0.321685 -5.589159 -2.972300 1.325791 -4.551259 -3.876593 4.738117 1.346172 6.891564 -3.738099 -9.196463 0.000000 0.000000 0.000000 -18.583751 0.415996 -2.916690 -53.943494 -6.296734 -3.134072 -9.258111 -11.246739 1.235731 0.000000 0.000000 0.000000 15.612464 -6.635822 -4.239196 62.303193 2.738706 -4.074066 8.850548 16.929512 1.772214 0.000000 0.000000 0.000000 
0.001525 0.945865 0.001083 0.276034 -3.863879 8.580596 4.114927 -0.404777 -5.388196 0.195726 0.213551 -6.396871 0.488221 4.631865 11.002742 0.000000 0.000000 0.000000 -3.721727 0.635997 -6.567026 -2.772894 -0.141885 -6.531073 0.510555 -5.472491 14.585160 0.000000 0.000000 0.000000 5.468048 0.307054 -5.465581 -2.946687 1.312082 -4.843251 -3.771649 4.682556 1.402065 6.739203 -3.615368 -9.330743 0.000000 0.000000 0.000000 -18.591747 -0.042391 -2.668343 -54.129932 -6.766427 -2.940628 -9.804080 -11.399322 1.306710 0.000000 0.000000 0.000000 15.695203 -6.294404 -4.082407 62.314336 3.071609 -3.912929 8.795794 17.110132 1.785564 0.000000 0.000000 0.000000 
0.001574 0.945935 0.000939 0.351744 -3.641393 8.500692 3.942843 -0.414123 -5.468586 0.379939 0.194618 -6.195932 0.387014 4.473564 10.952744 0.000000 0.000000 0.000000 -3.769846 0.627654 -6.481025 -2.812264 -0.136553 -6.476800 0.398487 -5.635100 14.576612 0.000000 0.000000 0.000000 5.417323 0.302156 -5.424544 -2.948403 1.314912 -4.892251 -3.830119 4.597164 1.425133 6.735804 -3.558161 -9.632624 0.000000 0.000000 0.000000 -18.466855 -0.696523 -2.322101 -54.425587 -7.434775 -2.657291 -10.261279 -11.617870 1.376581 0.000000 0.000000 0.000000 15.881581 -5.704362 -3.793530 62.274330 3.587650 -3.649207 8.898866 17.245241 1.816962 0.000000 0.000000 0.000000 
0.001597 0.945872 0.000733 0.378365 -3.628872 8.468552 3.937428 -0.412018 -5.430921 0.337820 0.198542 -6.232109 0.375874 4.456597 10.953725 0.000000 0.000000 0.000000 -3.843055 0.628953 -6.508868 -2.734385 -0.134221 -6.386137 0.378525 -5.650405 14.523422 0.000000 0.000000 0.000000 5.495749 0.303983 -5.427636 -2.947730 1.316547 -4.764665 -3.937060 4.735061 1.316175 6.771329 -3.539715 -9.798266 0.000000 0.000000 0.000000 -18.584691 -1.275134 -2.085534 -54.541523 -7.998244 -2.384696 -10.406116 -11.790685 1.408816 0.000000 0.000000 0.000000 16.087552 -5.328275 -3.593206 62.326019 4.268010 -3.282866 8.857043 17.132677 1.801454 0.000000 0.000000 0.000000 
0.001580 0.945896 0.000544 0.382130 -3.733319 8.443599 4.019526 -0.404070 -5.340722 0.171812 0.212337 -6.334908 0.410289 4.517571 11.006757 0.000000 0.000000 0.000000 -3.792255 0.623963 -6.428672 -2.839536 -0.139342 -6.539922 0.446138 -5.564650 14.576670 0.000000 0.000000 0.000000 5.563188 0.305939 -5.422780 -3.032274 1.352314 -4.667562 -3.864404 4.769792 1.252363 6.679771 -3.461547 -9.900070 0.000000 0.000000 0.000000 -18.601233 -1.539955 -1.944801 -54.620440 -8.429651 -2.183265 -10.277929 -11.825520 1.400802 0.000000 0.000000 0.000000 16.043957 -4.844999 -3.348247 62.298515 4.745577 -3.024763 9.140977 17.183028 1.842719 0.000000 0.000000 0.000000 
0.001588 0.945945 0.000416 0.329259 -3.791036 8.381145 4.094963 -0.395186 -5.229693 0.130326 0.217303 -6.399547 0.432015 4.552568 11.024674 0.000000 0.000000 0.000000 -3.699199 0.619625 -6.366620 -2.904269 -0.137938 -6.558857 0.488715 -5.507908 14.602195 0.000000 0.000000 0.000000 5.634831 0.307602 -5.410607 -2.994525 1.338201 -4.504900 -3.889949 4.976927 1.079785 6.706556 -3.466474 -9.884096 0.000000 0.000000 0.000000 -18.672157 -1.829060 -1.856066 -54.424204 -8.586486 -2.077006 -10.299612 -11.675990 1.381418 0.000000 0.000000 0.000000 16.284220 -4.600358 -3.214806 62.120542 5.211544 -2.758450 9.316060 17.034701 1.850982 0.000000 0.000000 0.000000 
0.001591 0.946016 0.000341 0.249840 -3.844325 8.367913 4.109347 -0.393293 -5.214479 0.251151 0.209654 -6.380435 0.465605 4.601269 11.018242 0.000000 0.000000 0.000000 -3.561340 0.625367 -6.440775 -2.999363 -0.125615 -6.418564 0.517691 -5.463891 14.593479 0.000000 0.000000 0.000000 5.765426 0.315759 -5.461546 -2.985445 1.336294 -4.324459 -3.867206 5.063153 0.886000 6.643226 -3.476391 -9.531072 0.000000 0.000000 0.000000 -18.771290 -2.066016 -1.770665 -54.465500 -8.745197 -1.978554 -10.077449 -11.442112 1.329832 0.000000 0.000000 0.000000 16.107774 -4.379335 -3.074245 62.144480 5.378316 -2.643076 9.284776 17.042824 1.847610 0.000000 0.000000 0.000000 
0.001565 0.946075 0.000300 0.282517 -3.867235 8.395356 4.176661 -0.394181 -5.256684 0.069630 0.219446 -6.363014 0.468314 4.612171 11.051250 0.000000 0.000000 0.000000 -3.615532 0.627111 -6.461422 -2.967341 -0.129033 -6.451512 0.529724 -5.452990 14.616969 0.000000 0.000000 0.000000 5.772915 0.316177 -5.470233 -3.016818 1.349659 -4.303841 -3.911063 5.173260 0.812409 6.659927 -3.512154 -9.343338 0.000000 0.000000 0.000000 -18.774597 -2.046935 -1.810378 -54.344532 -8.516248 -2.066033 -9.749669 -11.222247 1.271490 0.000000 0.000000 0.000000 16.146852 -4.313544 -3.024664 62.024819 5.376912 -2.630672 9.515954 16.979828 1.872518 0.000000 0.000000 0.000000 
0.001463 0.946118 0.000239 0.268327 -4.000565 8.321961 4.307598 -0.388862 -5.253029 -0.142728 0.225607 -6.190872 0.538033 4.704770 11.015516 0.000000 0.000000 0.000000 -3.481032 0.624995 -6.426212 -3.179319 -0.118651 -6.420361 0.599538 -5.346464 14.600928 0.000000 0.000000 0.000000 5.861915 0.315358 -5.420423 -3.054877 1.364640 -4.309316 -4.053345 5.375739 0.909730 6.793528 -3.627686 -9.166331 0.000000 0.000000 0.000000 -18.860286 -1.799543 -1.987084 -54.234144 -8.288307 -2.169675 -9.099785 -10.891604 1.172735 0.000000 0.000000 0.000000 16.338293 -4.466746 -3.090019 61.949872 5.333436 -2.663579 9.484188 16.812034 1.851854 0.000000 0.000000 0.000000 
0.001333 0.946155 0.000203 0.227865 -4.034777 8.310865 4.404132 -0.388211 -5.297713 -0.223647 0.226380 -6.076405 0.563502 4.736395 10.989400 0.000000 0.000000 0.000000 -3.394022 0.619685 -6.349135 -3.240733 -0.124369 -6.548138 0.635573 -5.307731 14.656824 0.000000 0.000000 0.000000 5.944247 0.318428 -5.431728 -3.153607 1.408564 -4.175534 -4.157885 5.548362 0.897371 6.978590 -3.756630 -9.092153 0.000000 0.000000 0.000000 -18.885590 -1.688363 -2.092178 -54.134026 -7.970789 -2.302569 -8.819060 -10.377025 1.090158 0.000000 0.000000 0.000000 16.493652 -4.662868 -3.172996 61.769544 5.221605 -2.716290 9.751386 16.575452 1.860923 0.000000 0.000000 0.000000 
0.001219 0.946326 0.000194 0.194760 -4.180128 8.373738 4.491740 -0.385535 -5.302278 -0.321721 0.234895 -6.141717 0.621302 4.840125 11.077501 0.000000 0.000000 0.000000 -3.343031 0.617334 -6.299282 -3.268080 -0.140225 -6.808455 0.741994 -5.192176 14.802006 0.000000 0.000000 0.000000 6.049175 0.326507 -5.494355 -3.275115 1.462000 -4.001344 -4.259010 5.629952 0.863536 7.100363 -3.869182 -8.921784 0.000000 0.000000 0.000000 -19.008919 -1.391831 -2.272022 -53.915224 -7.632705 -2.438106 -8.550034 -9.974226 1.024565 0.000000 0.000000 0.000000 16.603356 -4.883695 -3.295603 61.668938 5.109140 -2.770174 9.879644 16.215681 1.830140 0.000000 0.000000 0.000000 
